<svg xmlns="http://www.w3.org/2000/svg" viewBox="0 0 762 762" fill="none" shape-rendering="auto"><metadata xmlns:rdf="http://www.w3.org/1999/02/22-rdf-syntax-ns#" xmlns:xsi="http://www.w3.org/2001/XMLSchema-instance" xmlns:dc="http://purl.org/dc/elements/1.1/" xmlns:dcterms="http://purl.org/dc/terms/"><rdf:RDF><rdf:Description><dc:title>Adventurer</dc:title><dc:creator>Lisa Wischofsky</dc:creator><dc:source xsi:type="dcterms:URI">https://www.figma.com/community/file/1184595184137881796</dc:source><dcterms:license xsi:type="dcterms:URI">https://creativecommons.org/licenses/by/4.0/</dcterms:license><dc:rights>Remix of „Adventurer” (https://www.figma.com/community/file/1184595184137881796) by „Lisa Wischofsky”, licensed under „CC BY 4.0” (https://creativecommons.org/licenses/by/4.0/)</dc:rights></rdf:Description></rdf:RDF></metadata><mask id="viewboxMask"><rect width="762" height="762" rx="0" ry="0" x="0" y="0" fill="#fff" /></mask><g mask="url(#viewboxMask)"><path d="M396 164.8a224.8 224.8 0 0 1 104.8 42.4c6.2 4.9 12.5 9.4 18 15a225.4 225.4 0 0 1 71.8 149 58.5 58.5 0 0 1 50.9 42.2 71 71 0 0 1-27.6 76.5c-11 7.7-24.5 12-38 11.7-5 0-10-1.6-15-1.8-1.9 2.2-3.3 4.9-4.8 7.3A223.3 223.3 0 0 1 389 609.8c-11 .7-21.9 2-33 .7a223.7 223.7 0 0 1-178.8-342.3A223.4 223.4 0 0 1 352 163.5c14.6-1.4 29.4-.3 44 1.3Z" fill="#000"/><path fill-rule="evenodd" clip-rule="evenodd" d="M498.8 213.2A216 216 0 0 0 363 169c-13-.2-26.2 1.6-39 4a218 218 0 0 0-113.6 365.5 218.5 218.5 0 0 0 260.4 40.2c35-18.8 64.2-47.3 84.4-81.5l-3-1.6c-2.8-1.4-5.7-3-8-5-2.2-2-.3-5.8 2.7-4.7 1.5.7 3 1.6 4.4 2.4a55 55 0 0 0 59.6-3.6 64.5 64.5 0 0 0 25-69.8 53.1 53.1 0 0 0-24-31 52.6 52.6 0 0 0-47-2.8c-1.6.8-3.4 1.5-5 1.3-2.5-.2-2.8-4.2-.6-5.2 8-4 16.5-5.6 25.4-6.4a217 217 0 0 0-72-146.4c-4.4-4-8.7-8.1-13.9-11.3Zm107.6 196.2c2-1.2 1.3-5.1-1.4-5-2 0-4.2.8-6.2 1.6l-1.4.4a95.1 95.1 0 0 0-25.5 12.4c-2.2 2-2.2 4.4.1 6.2a92 92 0 0 0 5.2 2.8 36 36 0 0 1 13 9.2c-.2 1.9-2 3.4-3.4 4.5l-.2.2c-3.9 3-8.8 5-13.6 7-2.5 1-4.9 2-7.1 3.1-1.7.8-2.6 2.2-1.6 3.9 1 2 3.2 1.1 5 .5l.6-.2 5.4-2.3c5.4-2.3 11-4.5 15.4-8 2.7-2.1 5.1-5.1 5.4-8.7-.5-3.4-2.7-5.7-5.3-7.8a83 83 0 0 0-11.6-7.2l-1.1-.6c5.4-3 10.8-5.6 16.6-7.7l5-1.7a52 52 0 0 0 6.7-2.6Z" fill="#9e5622"/><g transform="translate(-161 -83)"><path d="M590 433c11.8 7 21 17.6 26.7 30 5.9-3.1 11.6-6.7 17.6-9.6 1.8-1 4.4.5 4 2.6.2 1.5-2 2.5-3 3.2l-16.4 9a65.7 65.7 0 0 1-39.4 82.3A65.9 65.9 0 0 1 501 523c-6-9.9-9.3-21.4-9.3-33a64.8 64.8 0 0 1 53.3-64.8c15.2-3 31.6 0 45 7.9Z" fill="#000"/><path d="M549.2 430.3a59.7 59.7 0 0 1 67.2 59.7 59.5 59.5 0 1 1-67.2-59.7Z" fill="#fff"/><path d="M390 447a55 55 0 1 1-55.7 38.6l-11.3-4.5c-2-.8-4-1.4-5.4-3-.4-2.5.8-4 3.2-3.7 5.2 1.3 10 4.2 15.2 5.6 1.4-1.7 2.2-3.8 3.3-5.7A55 55 0 0 1 390 447Z" fill="#000"/><path d="M376.5 453.7a49.3 49.3 0 1 1 20.8 96.4 49.3 49.3 0 0 1-20.8-96.4Z" fill="#fff"/><path d="M578.3 465.4a24.9 24.9 0 0 1 27.9 24.6c-.4 4.8-1.8 9.7-4.6 13.6a24.6 24.6 0 0 1-18.6 10.6c-8.2.5-16.4-3.3-21.2-10-6-8-6.3-19.8-.6-28a24.7 24.7 0 0 1 17-10.8ZM408.4 478.5a23 23 0 0 1 19.7 7.5c4 4.4 6 10 5.7 16 0 12-10.7 22.8-22.8 22.3a23 23 0 0 1-22.9-22.3 22.8 22.8 0 0 1 20.3-23.5Z" fill="#000"/></g><g transform="translate(-161 -83)"><path d="M613.5 401.5c1.6 1 1.1 2.9 1.3 4.5l-.1 34c.3 2.8-2.5 4.2-4.7 5l-120 41.1c-2.5.2-2.9-1.7-3.5-3.6l-5-18c1 5.8 1 11.7 1.3 17.5 0 1.4.5 4-1 4.9-2 1.4-4 0-4.6-2l-10.6-38.4c-.4-1.8-.7-3.9 1.3-4.9 2.2-.5 3.5.5 4 2.5 1.3 4.5 2.6 9 3.7 13.7-.7-5.3-1-10.5-1.2-15.8 0-1.3-.1-3.7 1.7-3.8l4.4-.7 123.6-35.2c3.3-.9 6-2.1 9.4-.8ZM324 433.9c13.6 1.4 27.4 1.4 41 2.6 21 1 42.1 2.6 63.1 3.4 7.8.8 15.6 1 23.5 1.7 2.8 2.1 1 8 1.9 11.3.6-3 .2-7 2-9.5 2-1.8 5-.1 4.7 2.6-2.4 14-4.8 28.1-7 42.2-.8 2.9-4.5 2.5-5.3-.2-.3-5-.2-9.9-.3-14.8-1 4.3-1.5 8.7-2.5 13-.4 1.6-1.2 2.8-3 2.4l-119-21.3c-1.8-.2-2.8-1.5-3-3.3-1.5-8-2.6-16-4.2-24-.2-1.7-.7-3.1.6-4.6 2.1-2.2 4.7-1.6 7.5-1.5Z" fill="#000"/></g><g transform="translate(-161 -83)"><path d="M495.2 561c15.5 1.8 31.3 5.5 44.5 14.2 7 4.6 13.5 11.3 15.3 19.8 2.4 8.6-3.6 18.2-11.7 21.4-7.2 3-14 1.8-21.3.1-6-1-12-1.6-18-1.8-22.6-1-45.1.8-67.2 5.8-5.7 1-11.1 3.2-16.8 3.7-6.5.1-13-3.1-16.8-8.5-3-4.1-4.4-9.6-4.3-14.7.6-7.8 5.4-15 11.2-19.9a85 85 0 0 1 35.4-16.8 157 157 0 0 1 49.7-3.3Z" fill="#000"/><path d="M506 568.6a76 76 0 0 1-35.8 13 92 92 0 0 1-41.5-5c8.8-4.8 19.4-7 29.2-8.8 16.1-2.2 32.1-2.4 48 .8Z" fill="#fff"/><path d="M513.8 570.3c11 3.2 22.5 7.7 30.4 16.5 4.2 4.8 7 11.2 4 17.4-3 6.2-9.7 8.6-16.2 8a234.4 234.4 0 0 0-69-2 239.8 239.8 0 0 0-36 6.8c-5.7 1.4-11.3 2.1-16.2-1.8-6.6-5.3-7.4-14.6-3.5-21.8a40.2 40.2 0 0 1 14.7-13.6c4 2.5 8.4 3.7 13 5a95 95 0 0 0 67-6.8c4.3-2 7.8-5.1 11.8-7.7Z" fill="#8F2E45"/></g><g transform="translate(-161 -83)"></g><g transform="translate(-161 -83)"></g><g transform="translate(-161 -83)"><path d="M464 199.3c14.7-1 29.4 2.8 42.6 9.1a66.2 66.2 0 0 1 33.3 32.7c1 2.6 1.2 5-.7 7.1-1.5.7-3.5.6-5 1-3 1-5.3 3.4-6.5 6.3-2.8 6.3-3.9 13.4-6.1 20-2.2 7-5.2 13.5-10.2 19A98.5 98.5 0 0 1 462 323a84.4 84.4 0 0 1-45-1c-7.7-2.3-14.1-7.4-18.4-14.1-.8-1.3-.2-3.5 1.6-3.6 4.5-.4 8.8-.5 13-2.4 5.8-2.3 9-7.8 10-13.8 1.1-8.4-.5-15.9-1.4-24.2a95.3 95.3 0 0 1-.4-32.2c1.6-7.5 5.1-14.4 10.7-19.7a49.6 49.6 0 0 1 31.9-12.8Z" fill="#000"/><path d="M462 205.2c13.3-1.4 27.3 2 39.5 7.3 14.3 6.6 27 16 33.6 30.7a17.1 17.1 0 0 0-12.5 10.3c-4.3 9.9-5.4 21.1-11.1 31a62.5 62.5 0 0 1-16.3 16.7 92.4 92.4 0 0 1-60.7 18.5c-9.8-1.2-20-2.6-27.1-10a39 39 0 0 0 10.7-3.6c5.9-3.5 9.7-9.6 10.8-16.3 1.4-11.9-1.1-22.2-2.2-33.8-.8-5.2-.6-10.7-.5-16 .5-8.6 3.3-17.2 9.5-23.3a43 43 0 0 1 26.3-11.5Z" fill="#6a4e35"/></g><g transform="translate(-161 -83)"></g></g></svg>