<svg xmlns="http://www.w3.org/2000/svg" viewBox="0 0 762 762" fill="none" shape-rendering="auto"><metadata xmlns:rdf="http://www.w3.org/1999/02/22-rdf-syntax-ns#" xmlns:xsi="http://www.w3.org/2001/XMLSchema-instance" xmlns:dc="http://purl.org/dc/elements/1.1/" xmlns:dcterms="http://purl.org/dc/terms/"><rdf:RDF><rdf:Description><dc:title>Adventurer</dc:title><dc:creator>Lisa Wischofsky</dc:creator><dc:source xsi:type="dcterms:URI">https://www.figma.com/community/file/1184595184137881796</dc:source><dcterms:license xsi:type="dcterms:URI">https://creativecommons.org/licenses/by/4.0/</dcterms:license><dc:rights>Remix of „Adventurer” (https://www.figma.com/community/file/1184595184137881796) by „Lisa Wischofsky”, licensed under „CC BY 4.0” (https://creativecommons.org/licenses/by/4.0/)</dc:rights></rdf:Description></rdf:RDF></metadata><mask id="viewboxMask"><rect width="762" height="762" rx="0" ry="0" x="0" y="0" fill="#fff" /></mask><g mask="url(#viewboxMask)"><path d="M396 164.8a224.8 224.8 0 0 1 104.8 42.4c6.2 4.9 12.5 9.4 18 15a225.4 225.4 0 0 1 71.8 149 58.5 58.5 0 0 1 50.9 42.2 71 71 0 0 1-27.6 76.5c-11 7.7-24.5 12-38 11.7-5 0-10-1.6-15-1.8-1.9 2.2-3.3 4.9-4.8 7.3A223.3 223.3 0 0 1 389 609.8c-11 .7-21.9 2-33 .7a223.7 223.7 0 0 1-178.8-342.3A223.4 223.4 0 0 1 352 163.5c14.6-1.4 29.4-.3 44 1.3Z" fill="#000"/><path fill-rule="evenodd" clip-rule="evenodd" d="M498.8 213.2A216 216 0 0 0 363 169c-13-.2-26.2 1.6-39 4a218 218 0 0 0-113.6 365.5 218.5 218.5 0 0 0 260.4 40.2c35-18.8 64.2-47.3 84.4-81.5l-3-1.6c-2.8-1.4-5.7-3-8-5-2.2-2-.3-5.8 2.7-4.7 1.5.7 3 1.6 4.4 2.4a55 55 0 0 0 59.6-3.6 64.5 64.5 0 0 0 25-69.8 53.1 53.1 0 0 0-24-31 52.6 52.6 0 0 0-47-2.8c-1.6.8-3.4 1.5-5 1.3-2.5-.2-2.8-4.2-.6-5.2 8-4 16.5-5.6 25.4-6.4a217 217 0 0 0-72-146.4c-4.4-4-8.7-8.1-13.9-11.3Zm107.6 196.2c2-1.2 1.3-5.1-1.4-5-2 0-4.2.8-6.2 1.6l-1.4.4a95.1 95.1 0 0 0-25.5 12.4c-2.2 2-2.2 4.4.1 6.2a92 92 0 0 0 5.2 2.8 36 36 0 0 1 13 9.2c-.2 1.9-2 3.4-3.4 4.5l-.2.2c-3.9 3-8.8 5-13.6 7-2.5 1-4.9 2-7.1 3.1-1.7.8-2.6 2.2-1.6 3.9 1 2 3.2 1.1 5 .5l.6-.2 5.4-2.3c5.4-2.3 11-4.5 15.4-8 2.7-2.1 5.1-5.1 5.4-8.7-.5-3.4-2.7-5.7-5.3-7.8a83 83 0 0 0-11.6-7.2l-1.1-.6c5.4-3 10.8-5.6 16.6-7.7l5-1.7a52 52 0 0 0 6.7-2.6Z" fill="#ecad80"/><g transform="translate(-161 -83)"><path d="M540.5 447.7a103 103 0 0 1 57 7.8 46 46 0 0 1 21.2 19c3.9 7.3 3.9 16.7-.2 24-4.2 8-12 14-20 18.2a95.3 95.3 0 0 1-44.5 9.6c-12 0-24-1.8-35.2-6a56 56 0 0 1-23.7-16.3 26.6 26.6 0 0 1-6-22 35.2 35.2 0 0 1 14.5-20.4 82 82 0 0 1 36.9-13.9Z" fill="#000"/><path d="M547 452.7c8.4-.3 17.2-.6 25.5 1a74 74 0 0 1 30.3 11.5c5.5 4 10.4 9.1 12.3 15.8 2 6.8-.2 14.1-4.7 19.4a54.2 54.2 0 0 1-24.6 15.5c-9.9 3.2-20.4 5-30.8 4.8a92.9 92.9 0 0 1-30.2-4.5A54 54 0 0 1 500 501c-4.3-5-7-12.4-4.9-19 1.5-6.5 6.7-12 12-16 11.4-8.2 26-12 39.9-13.3Z" fill="#fff"/><path d="M373.5 460.8c16.3-2.3 34.2-1 49 6.6 7.8 4 15.5 10.4 18 19 2.4 7.2-.1 14.8-4.6 20.5a50.5 50.5 0 0 1-24.6 15.4 89.7 89.7 0 0 1-45.3 1.8c-10-2.3-20-6.5-27.2-14-4.7-4.7-8-11.2-7.4-18 .6-7.3 5-13.7 10.5-18.2a65 65 0 0 1 31.6-13.1Z" fill="#000"/><path d="M371.5 467c15.6-3 33-1.9 47.4 5 6.4 3 13.5 8.2 15.8 15.2 2 5.6.3 11.7-3.3 16.2a43.5 43.5 0 0 1-18.6 12.4c-12.4 4.4-26 5.9-39 3.9-9.3-1.3-19-4.3-26.7-9.8-5.2-4-9.6-9-10-15.9-.1-6.8 4.2-12.5 9.4-16.6a60.4 60.4 0 0 1 25-10.5Z" fill="#fff"/><path d="M592.2 469.2c2.1-1.6 4.7-.3 6 1.7 2.4 4 2.4 9.6 2.8 14.1.2 4.4.5 9.6-1.2 13.8-2 4-7.5 1.3-8.8-1.9a50.3 50.3 0 0 1-1.6-20.3c.4-2.4.6-6 2.8-7.4ZM416.9 476c2.1.6 2.8 3.8 3.3 5.7.8 5 1.3 10.2 1 15.3-.3 2.6-.7 5.7-3 7.2-2.2 1.3-4.4 0-5.4-2-2.1-3.8-2.2-9-2.3-13.2 0-4.4-.1-8.7 2.2-12.6 1.4-.3 2.7-1 4.2-.3Z" fill="#000"/></g><g transform="translate(-161 -83)"><path d="M523.2 384.4c6.2-.5 13.1-.6 18.5 3a10 10 0 0 1 4.5 10.7c-1.6 6.1-6.7 10.9-11.6 14.4a67.6 67.6 0 0 1-30.6 11.6c-5.6.5-12.5.4-17.5-2.6a10.2 10.2 0 0 1-5.2-10.3c1-5.8 5.5-10.5 10-14 9.1-7 20.5-11.3 32-12.8ZM392.2 401.2a47 47 0 0 1 26.3 5.3c3.9 2.2 7.4 5.9 8 10.5.3 4.2-2 7.8-5.3 10.2-4.5 3.6-9.8 5-15.4 6-10 1-20.6.3-29.5-4.6-3.9-2.2-7.9-5.8-8.4-10.5-.8-4.3 2-8.5 5.3-10.9a36 36 0 0 1 19-6Z" fill="#000"/></g><g transform="translate(-161 -83)"><path d="M534.3 562.6c8 1.1 15.4 4.3 21.2 9.9a39 39 0 0 1 11.9 29.5c.3 9.8-2.4 19.1-6.7 27.8a82.5 82.5 0 0 1-70.7 45.3 107.2 107.2 0 0 1-82-34 46.4 46.4 0 0 1-11.6-29.1c0-7.9 4-15.6 10.5-20.2A42 42 0 0 1 430 585c14.2.2 27.8 4.4 40.2 11.2a79.6 79.6 0 0 1 34-29c9.4-4.2 19.8-6 30-4.6Z" fill="#000"/><path d="M533.5 568.3c9.2 1.3 18 6.3 22.9 14.3 6 9.6 6.6 21 3.8 31.8-4-.5-8-.7-12-.2-10.8.6-21.7 3.4-32 7a42.9 42.9 0 0 0-.5-23.9c-1.7-3.8-5.4-6.2-9.6-4.3-6.6 3.1-10.3 11.9-13 18.2-4.8-1.6-11.3-3.8-16-1.2-4 2.2-3.9 6.5-2.5 10.2 2.6 6.3 7.7 11.1 12.6 15.5a114 114 0 0 0-31.1 29c-15-4.7-28.7-13-40-23.7a45.7 45.7 0 0 1-13.7-24.4c-1-6.4.7-13.2 5.4-17.8 4.4-4.6 11-6.7 17.2-7.5a69.3 69.3 0 0 1 35.2 6.5c3.8 1.5 7.1 3.8 10.8 5.4 2.7.3 3.7-3.4 5-5.2a70 70 0 0 1 38.7-28.3c6-1.8 12.6-1.9 18.8-1.4Z" fill="#8F2E45"/><path d="M509 597.9c2.6 2.3 2.7 6.8 2.9 10-.1 11-3.2 22-8 31.7a54 54 0 0 1-23.3-20.2c-1-1.4-1-3-1.2-4.6 5.2-.7 9.2 1 13.8 2.9 2.8 1 3.9-1.4 5-3.5 2.4-5.5 5.1-13.3 10.8-16.3Z" fill="#D32020"/><path d="M558.6 620a70.8 70.8 0 0 1-11 19.6c-3.8 4.8-8.5 8.9-13 13a77 77 0 0 1-35.1 15.6c-12.5 2-25.2 1.2-37.5-1.6 8-11.1 18.6-19.9 30.3-27.1 3.7 2.3 7.6 5.1 11.7 6.6 1.4.6 2.8-.4 3.6-1.5 3.2-4.9 4.9-10 6.8-15.4.4-1.4 1.6-1.6 2.8-2.1 13-4.7 27.5-8.1 41.4-7.2Z" fill="#EA869E"/></g><g transform="translate(-161 -83)"></g><g transform="translate(-161 -83)"></g><g transform="translate(-161 -83)"><path d="M728 185c7.8-.4 15.9 1.2 22.5 5.5 5.4 3.5 9.8 8.9 12 15 .4 1.8.7 4-1.5 4.7-4.2.5-8.7-1-13-.6-12.5 1-24.5 6-33.1 15.3a64.8 64.8 0 0 0-16.5 34 33.2 33.2 0 0 0 4.3 23.2c11.5 7.7 22.5 15.4 33.8 23.3a124.9 124.9 0 0 1 38.7 42.4c7.6 14 12.4 29.7 15.6 45.2 4.2 20 5.8 40.5 6 61-.5 6.5-.4 13.1-1.4 19.5-1.4 2.4-5.9 3.7-8.4 4-2.7-.9-4.7-3.9-7-5.5a53 53 0 0 0-60.5-4.5c-4 2.4-5.7 6.4-9.4 9.1-4.9-3-7.4-7.7-11.6-12.1-6.5-7.6-14.2-14-21.5-20.8a71 71 0 0 1-14.7 14.6c-3.6 2.7-7.8 5-12.3 5.9-2.2-.5-2.8-2-2-4a86.3 86.3 0 0 0 8-46.7 78.2 78.2 0 0 0-10.7-32.3c-.5 5.1-1.3 10-3.3 14.8-4.2 10.6-11 21-20.2 27.9-2.4 1.7-5.7 3.8-8.8 3.3-2.6-1.8-3-5.3-4.1-8.2-5.7-17-14.5-32.4-21.2-49.1A140.1 140.1 0 0 0 590 417c.2 1.4-.4 2.7-2 2.5-11 .8-22 1-32.8-.3-2-.2-3.8-1-5.6-2-10.6-4.7-18.6-15.6-24.8-25.1a165 165 0 0 1-17-39c-.5 18.8 1.7 37.3 7.8 55 1.9 5.1 4 10.5 7.4 14.8.8 1.2 2 2.5 2.2 4-.5 2-2.4 3.3-4.4 3.4a631 631 0 0 1-28.8 1.8c-13.2.2-25.6.7-38.6-2.6-2.3-.7-4.4-1.2-6-3a72 72 0 0 1-13.4-22.7c-8-20.5-11-42.9-8.4-64.8-8.3 21-14.2 44.3-11.2 67 .3 3.8 2 7.1 2.7 10.8-1.3 2.7-4 3-6 1a113.6 113.6 0 0 1-31.5-52.1c-3.8 6.4-6.9 13.2-9.7 20.1-3 8.2-5.8 16.3-5.9 25.2 0 2.8-2.6 3.4-5 3.4a94.2 94.2 0 0 1-40-8.1c-.9 4-1.7 7.9-2.8 11.7-2.4 8.8-3.4 18-5 26.9-.6 3.9-.1 8-1.2 11.9-.7 2.8-4.9 2.3-6.3.4a63.4 63.4 0 0 1-15-45.3c.3-9.8 1.5-19.8 4.2-29.2a73.5 73.5 0 0 1-9.5-36.8 83.9 83.9 0 0 1 12.6-45 155 155 0 0 1 46-45.9c-16.4 7.3-31.4 16-44.3 28.6-2 2-3.5 4.5-5.3 6.7-2 1.3-4.1 0-4.3-2.4-.7-7-.4-14 .4-21a69 69 0 0 1 22-40.4 84.4 84.4 0 0 1 36-20.1c16.7-4.6 34.2-6.8 51.5-7.4 32.7-1.3 64.1 3.2 96 9.9 5.1.7 11 3.2 16 1 10.2-3.8 21.1-6.2 32-7.4a170.6 170.6 0 0 1 130.7 43.9 40.5 40.5 0 0 1 2.2-22.6 62.4 62.4 0 0 1 53-39ZM720 576.5c3.9-.2 8.1 1.6 12 2.5 2.5.3 3.1 3.8 1.4 5.4a58 58 0 0 1-15.6 10.4c-2.8 1.4-5.4.9-8.4.7-1.1-4.5 3.2-7.2 5-11 1.8-2.4 3-6.6 5.5-8Z" fill="#000"/><path d="M740.8 192.3c6.5 2 11.4 6.1 14.9 12-9.9-1.3-20.3.9-29.2 5-15 7.1-26 22-31 37.5a50 50 0 0 0-2 26.4c1.2 5.4 3.4 11.9 8.5 14.9 7.6 5 14.9 10.4 22.4 15.6a150.5 150.5 0 0 1 38.1 34.8c16 21.6 22.6 50.3 26.1 76.5 1.9 15 2.7 30 2.2 45.2-.1 4-.3 8-1.6 12-4.2-3.4-8-7-12.7-9.7a59.6 59.6 0 0 0-55-3 48.3 48.3 0 0 0-11.6 9.6c-4.9-5.8-9.8-11.5-15.3-16.7-4.7-4.5-9.9-8.3-14.4-13 2.7-4.7 5-10 6-15.4.3-2.2.6-5.3-1-7.1-1.2-1-2.4-1-3.7-.5-1.2 2.3-.5 5.3-1.2 7.8-2.9 13.2-13.4 24.6-24.3 32 3.6-10.6 6.4-21 6.4-32.2a84.4 84.4 0 0 0-18.6-54c-1.7-1-4.1-.3-4.1 2a55.2 55.2 0 0 1-23.8 49.5c-6.4-20.2-17.1-38.2-24.4-58-.9-1.9-1.9-5.2-4.5-5-2.7-.2-3.4 2.3-4 4.4-2.2 10.4-2 20.3-1.7 30.9.6 6.8 1 13.8 2.7 20.5-9.1.7-18 1-27-.2-5.5-1.8-11-5-15-9.1a99.3 99.3 0 0 1-18.5-27.5 108.1 108.1 0 0 1-11.5-33.7c-1-4.6-.5-9.5-1.8-14-.7-2.6-4.5-2.5-5.2 0-1.8 7.9-2.3 16.1-3 24.2-.4 14.7 1.1 29.8 4.8 44a95 95 0 0 0 10.8 26.9c-8.2.9-16.4.8-24.6 1.7-13.2.4-28 1-40.7-2.8-2.2-3-4.4-5.7-6.4-8.8a121.4 121.4 0 0 1-11.8-89c.6-2.9 2.5-5.6 0-8.1-2.4-.7-3 .1-4.4 1.9-5.6 8.3-9.8 17.5-13.1 27a127.1 127.1 0 0 0-7.3 61.2c-10.3-11.3-18-25-22.8-39.5a93.6 93.6 0 0 1-4.2-47.5c0-1.7.8-3.2-1-4.3-1.8-1.5-4 0-4.4 2a95.5 95.5 0 0 0 .6 39.2c-5 7.9-9 16.6-12.5 25.2-3 8.2-5.7 17-6.2 25.8-12.2-.3-24.5-2-35.7-7a61.6 61.6 0 0 1-23.4-19.5 69.3 69.3 0 0 1-10.1-46.4c2-15.5 8.7-29.8 18.3-42 14.9-19.3 33.7-32.2 54-45.1 1.9-1.2 4.5-2.2 5.9-4 .6-2.6-.8-3.1-2.5-4.3-26.7 8-52 19.8-71.8 39.8-.3-11.8 2-23.6 8.3-33.8a76.3 76.3 0 0 1 41.7-33.1c17.1-5.6 35.5-7.8 53.5-8.6 31.6-1.4 62 2.8 93 8.8 6 1 12 2.6 18 2.7 2.7-.5 5.3-1.6 8-2.5 23.6-7.6 48.7-8.2 73-3.4 30.1 6 58.4 20.7 81.1 41.4 2.5 2.3 4.9 4.8 7.8 6.6 1.2-.6 2.5-1.2 3.5-2 1-2.7-1.7-5.8-2.3-8.5-2.6-8.4-1-17.7 2.6-25.5a57.8 57.8 0 0 1 29.8-28 42.2 42.2 0 0 1 29.3-2.2ZM296.9 388.4a76 76 0 0 0 17.1 15c-1 7.8-3.8 15-5.2 22.6-1.5 7.9-2.8 15.8-3.8 23.7a56 56 0 0 1-9-20.5 98 98 0 0 1 .2-37.4l.7-3.4ZM722.3 582.1l4.4.8a48 48 0 0 1-8.3 5.6c1.2-2.1 2.4-4.5 3.9-6.4Z" fill="#796a45"/></g><g transform="translate(-161 -83)"></g></g></svg>