<svg xmlns="http://www.w3.org/2000/svg" viewBox="0 0 762 762" fill="none" shape-rendering="auto"><metadata xmlns:rdf="http://www.w3.org/1999/02/22-rdf-syntax-ns#" xmlns:xsi="http://www.w3.org/2001/XMLSchema-instance" xmlns:dc="http://purl.org/dc/elements/1.1/" xmlns:dcterms="http://purl.org/dc/terms/"><rdf:RDF><rdf:Description><dc:title>Adventurer</dc:title><dc:creator>Lisa Wischofsky</dc:creator><dc:source xsi:type="dcterms:URI">https://www.figma.com/community/file/1184595184137881796</dc:source><dcterms:license xsi:type="dcterms:URI">https://creativecommons.org/licenses/by/4.0/</dcterms:license><dc:rights>Remix of „Adventurer” (https://www.figma.com/community/file/1184595184137881796) by „Lisa Wischofsky”, licensed under „CC BY 4.0” (https://creativecommons.org/licenses/by/4.0/)</dc:rights></rdf:Description></rdf:RDF></metadata><mask id="viewboxMask"><rect width="762" height="762" rx="0" ry="0" x="0" y="0" fill="#fff" /></mask><g mask="url(#viewboxMask)"><path d="M396 164.8a224.8 224.8 0 0 1 104.8 42.4c6.2 4.9 12.5 9.4 18 15a225.4 225.4 0 0 1 71.8 149 58.5 58.5 0 0 1 50.9 42.2 71 71 0 0 1-27.6 76.5c-11 7.7-24.5 12-38 11.7-5 0-10-1.6-15-1.8-1.9 2.2-3.3 4.9-4.8 7.3A223.3 223.3 0 0 1 389 609.8c-11 .7-21.9 2-33 .7a223.7 223.7 0 0 1-178.8-342.3A223.4 223.4 0 0 1 352 163.5c14.6-1.4 29.4-.3 44 1.3Z" fill="#000"/><path fill-rule="evenodd" clip-rule="evenodd" d="M498.8 213.2A216 216 0 0 0 363 169c-13-.2-26.2 1.6-39 4a218 218 0 0 0-113.6 365.5 218.5 218.5 0 0 0 260.4 40.2c35-18.8 64.2-47.3 84.4-81.5l-3-1.6c-2.8-1.4-5.7-3-8-5-2.2-2-.3-5.8 2.7-4.7 1.5.7 3 1.6 4.4 2.4a55 55 0 0 0 59.6-3.6 64.5 64.5 0 0 0 25-69.8 53.1 53.1 0 0 0-24-31 52.6 52.6 0 0 0-47-2.8c-1.6.8-3.4 1.5-5 1.3-2.5-.2-2.8-4.2-.6-5.2 8-4 16.5-5.6 25.4-6.4a217 217 0 0 0-72-146.4c-4.4-4-8.7-8.1-13.9-11.3Zm107.6 196.2c2-1.2 1.3-5.1-1.4-5-2 0-4.2.8-6.2 1.6l-1.4.4a95.1 95.1 0 0 0-25.5 12.4c-2.2 2-2.2 4.4.1 6.2a92 92 0 0 0 5.2 2.8 36 36 0 0 1 13 9.2c-.2 1.9-2 3.4-3.4 4.5l-.2.2c-3.9 3-8.8 5-13.6 7-2.5 1-4.9 2-7.1 3.1-1.7.8-2.6 2.2-1.6 3.9 1 2 3.2 1.1 5 .5l.6-.2 5.4-2.3c5.4-2.3 11-4.5 15.4-8 2.7-2.1 5.1-5.1 5.4-8.7-.5-3.4-2.7-5.7-5.3-7.8a83 83 0 0 0-11.6-7.2l-1.1-.6c5.4-3 10.8-5.6 16.6-7.7l5-1.7a52 52 0 0 0 6.7-2.6Z" fill="#763900"/><g transform="translate(-161 -83)"><path d="M561.9 423.3c1.8.4 1.9 1.9 2 3.5 0 6.7-1 13.4-.8 20.1 8.3.6 16 2 24 4.5 3.2-7.1 6-14.4 8.8-21.6 1-1.8 1.5-4.1 4-3.8 2.4.3 2.6 3 1.8 4.8l-9 22.6a69.9 69.9 0 0 1 18.1 10.8c5-4.6 9.7-9.4 14.7-13.8 1.6-1.6 3.3-1 5.3-1.1-.2 2 .3 3.6-1.4 5.1-4.7 4.8-9.7 9.3-14.6 13.9a30 30 0 0 1 6.7 16.7c.7 9.9-4.8 18.2-12 24.4a78.6 78.6 0 0 1-40.5 16.1c-16.6 1.9-33.8.9-49.5-5A56.4 56.4 0 0 1 495 504c-5-6.4-7.8-14.7-5.7-22.8 2.4-9.9 9.9-17.3 18.3-22.4 14.8-9 32.4-12.1 49.5-12.1.2-6.6.5-13.2 1.1-19.7 0-2 1.2-4.3 3.6-3.7ZM372 441.4c2-.2 2.6 2.2 3.1 3.6 1.2 5 1.3 10.2 2.2 15.3a99 99 0 0 1 25.7.7c10.9 2 22 6 30.1 13.9 5 4.6 8.5 11.2 8.3 18.1a27 27 0 0 1-10 18.5 65 65 0 0 1-33 13.7 84 84 0 0 1-47.3-6.3c-8.5-4.1-17-11.2-19.2-20.8-1.3-5.2 0-10 2-14.8-3.9-3.5-7.7-7-11.5-10.7-.8-1-2.4-2.2-2-3.6 0-2.6 3.5-3 5-1.4 4 3.5 7.7 7.4 11.7 10.9 3.4-3.6 7-6.6 11.1-9.2l-8.2-18.4c-1.1-2.2-.9-4.4-.7-6.8 1.2.2 2.6.3 3.8.8 1.2 1.2 1.8 3 2.6 4.5 2.5 5.7 5.1 11.4 7.5 17.2 6-2.6 12-4.3 18.3-5.6-.4-5.4-1.7-10.6-2-16 0-1.6.4-4.1 2.5-3.6Z" fill="#000"/><path d="M539.5 453.7a103 103 0 0 1 44.2 2.6c9.5 3 19.2 7.5 26 15 4.3 5 7 11.1 6 17.7-1.1 7.2-5.8 13-11.4 17.3a73.5 73.5 0 0 1-31.1 12.8 101.6 101.6 0 0 1-47.7-2.6c-9.4-3-19-7.8-25.5-15.5-4.3-5-6.9-12.4-4.9-19 1.6-6.6 6.7-12 12-16a76 76 0 0 1 32.4-12.3ZM371.5 467c15.6-3 33-1.8 47.4 5 6.4 3 13.4 8.2 15.8 15.1 2 5.7.3 11.8-3.3 16.3a43.5 43.5 0 0 1-18.6 12.3 80.5 80.5 0 0 1-39.8 3.8c-9-1.3-18.4-4.3-26-9.6-5.1-4-9.5-9-9.8-15.9-.2-6.6 3.9-12 8.7-16.1a59.4 59.4 0 0 1 25.6-11Z" fill="#fff"/><path d="M592.2 469.2c2.2-1.6 4.7-.3 6 1.7 1.8 3 2.1 6.6 2.5 10.1.4 5.2.8 10.7-.3 15.9-.3 1.3-1 2.6-2 3.5-3 1.4-6.9-1.3-7.6-4.2-2-6.2-2-13.2-1.4-19.7.4-2.3.6-5.9 2.8-7.3ZM413.3 476.3a4 4 0 0 1 6 2.4c1.8 5.1 1.9 11 2 16.3-.1 3.1-.4 8-3.8 9.5-2.6 1-4.6-1.4-5.4-3.6a45.1 45.1 0 0 1-1.5-17c.2-2.3.4-6.2 2.7-7.6Z" fill="#000"/></g><g transform="translate(-161 -83)"><path d="M613.5 401.5c1.6 1 1.1 2.9 1.3 4.5l-.1 34c.3 2.8-2.5 4.2-4.7 5l-120 41.1c-2.5.2-2.9-1.7-3.5-3.6l-5-18c1 5.8 1 11.7 1.3 17.5 0 1.4.5 4-1 4.9-2 1.4-4 0-4.6-2l-10.6-38.4c-.4-1.8-.7-3.9 1.3-4.9 2.2-.5 3.5.5 4 2.5 1.3 4.5 2.6 9 3.7 13.7-.7-5.3-1-10.5-1.2-15.8 0-1.3-.1-3.7 1.7-3.8l4.4-.7 123.6-35.2c3.3-.9 6-2.1 9.4-.8ZM324 433.9c13.6 1.4 27.4 1.4 41 2.6 21 1 42.1 2.6 63.1 3.4 7.8.8 15.6 1 23.5 1.7 2.8 2.1 1 8 1.9 11.3.6-3 .2-7 2-9.5 2-1.8 5-.1 4.7 2.6-2.4 14-4.8 28.1-7 42.2-.8 2.9-4.5 2.5-5.3-.2-.3-5-.2-9.9-.3-14.8-1 4.3-1.5 8.7-2.5 13-.4 1.6-1.2 2.8-3 2.4l-119-21.3c-1.8-.2-2.8-1.5-3-3.3-1.5-8-2.6-16-4.2-24-.2-1.7-.7-3.1.6-4.6 2.1-2.2 4.7-1.6 7.5-1.5Z" fill="#000"/></g><g transform="translate(-161 -83)"><path d="M505 633.2c9 .5 16.9 6.7 24.1 11.4-13-.2-26.3 2.1-39 5.5-9.4 2.6-18.6 6-27 11 3.2-8.1 7.8-18.1 16.6-21.4 4-2 7.7-1.2 12-.9 3.8-3.3 8-6 13.3-5.6Z" fill="#D31E1E"/><path d="M529.1 644.6c2.5.1 4.7 1.4 4 4.2-1.5 2-4.5 1.3-6.7 1.5a155 155 0 0 0-43.8 8.3 73.8 73.8 0 0 0-14 6.2c-2 1-3.3 2.6-5.6 1.5-2.2-1.6-1.2-3.5 0-5.2 8.6-5 17.7-8.4 27.1-11 12.7-3.4 26-5.7 39-5.5Z" fill="#000"/><path d="M526.4 650.3a39.8 39.8 0 0 1-24.5 18.5 47 47 0 0 1-33.2-4c4.4-2.6 9-4.5 13.9-6.2a155 155 0 0 1 43.8-8.3Z" fill="#D31E1E"/></g><g transform="translate(-161 -83)"></g><g transform="translate(-161 -83)"><path d="M569 416.3c10.7-.3 21.4 0 32-.2 14-.7 28-.4 42-.6 3.9.2 9-.1 12.2 2.4 2.4 1.6 2.2 5.5 2.4 8-.1 4.4-.3 9.5-2.4 13.4-5 2-11.4 1.2-16.8 1.9.4 12.3 1.7 24.6 1.3 36.8-.7 14-3.7 28-10.3 40.4-8.1 13-20 24.3-33.6 31.5a77 77 0 0 1-33.3 7.7c-6.3.2-12.1.5-18.3-.8-9.4-2-18.8-4.4-27-10A81.6 81.6 0 0 1 492 516a193.1 193.1 0 0 1-13.3-43.9c-.5-2.3-2.4-3.5-4.3-4.4-6.7-3-15-.6-18.8 5.6-.8 2.4-1 5-1.2 7.6-.6 7.6-2.2 15.3-3.9 22.8-3.1 13.6-9 26.3-16.8 37.8a50.8 50.8 0 0 1-16.2 14.8 75.6 75.6 0 0 1-34.4 10.3c-7.2-.2-14.2-.4-21.1-2.5-5.5-1.3-10.5-4.8-15.2-8a57.7 57.7 0 0 1-15.3-16.7c-5.3-8.3-9.3-17.3-12.2-26.7a97.5 97.5 0 0 1-5.2-28.7c-4.6.7-9.4 2.2-14 2-4.4-.9-5.3-7.6-5.5-11.1.1-2.4-.1-6.8 2.7-7.7 21.6-9.8 44.4-17 67.5-22.4 17-3.7 34.8-8.3 52.3-6.7 11.2 1 22.8 4 31.7 11 3.2 2.5 5.5 7 9.4 7.7 7 1.8 14.5-1.3 20.9-4 3.6-10 10-17.3 19-22.8a89.3 89.3 0 0 1 20.8-8.3c16.7-4 33.1-4.6 50.2-5.5Z" fill="#000"/><path d="M307.1 478.2c1.2-1.2 3.4 0 2.4 1.6-1.2 1.2-3.4 0-2.4-1.6Z" fill="#000"/><ellipse cx="605" cy="457.5" rx="14" ry="10.5" fill="#fff"/><ellipse cx="411" cy="476.1" rx="11" ry="8.1" fill="#fff"/></g><g transform="translate(-161 -83)"><path d="M495.4 210.6c6.2 3.2 9 9.8 11.8 15.8 10-2 20.6-3 30.8-4.3 25.4-1.8 50.8-2.7 75.3 5.5 12.2 4 23 10 34.3 15.8 17.6 9.3 36.4 18.3 53.6 28.4a158.6 158.6 0 0 1 41 36 450.4 450.4 0 0 1 43.4 78.7c16.7 39 28.4 80.3 33.4 122.4 2.2 18.3 3 36.7 2.2 55.1-1.6 26-6 52.1-17.5 75.8a97.7 97.7 0 0 1-35.4 41.5c-4.2 2.5-8.6 5.2-13.3 6.4-2.3-.8-2.7-2.3-1.7-4.4 2.2-3.8 5-7.2 6.7-11.2 5.4-11.7 9-24.5 11.6-37.1 2.5-11.9 3.8-23.9 2.7-36a254.3 254.3 0 0 1-17 31.4 254 254 0 0 1-48.6 55.4A260.8 260.8 0 0 1 653 724c-3.8 1.8-7.8 3.6-12 4.4-1.7.1-2.6-.7-2.7-2.5 2.2-3.5 6-5.8 8.6-9a88.5 88.5 0 0 0 19.6-38.1c3.5-17.2.5-35-6.3-51-7.3-17-18.4-32.6-30.9-46.2 0 5.1 0 10.3.6 15.4 1 11 1.4 21.5 6.6 31.4 1 1.6 1 4.5-1.5 4.2-8.6-.5-17.2-1-25.8-2.2A150 150 0 0 1 556 609a263.6 263.6 0 0 1-55.7-45.3 261.4 261.4 0 0 1-55.9-105.2c-6-22.7-10.3-46-11.8-69.5-.9-7-.8-14-1-21a309 309 0 0 1 4.5-56 335.9 335.9 0 0 0-54.5 40.6 428.5 428.5 0 0 0-65.8 74.2c-2.1 2.7-2.8 5.9-3.2 9.2a217.2 217.2 0 0 0 109 224.3c3.3 2 7 3.2 9.8 5.6.7 2.4-.7 3.8-1.8 5.7-8.6 12.5-15.6 27-18 42-1 3.2-4.8 2.1-7 1.5a153 153 0 0 1-39.6-19 106.6 106.6 0 0 1-21.4-21.2 277 277 0 0 1-48.4 44.4c-1.6 1.1-3.3 1.4-5.2 1.9-1-2.5-1.1-3.7-.2-6.2 3.5-9.2 3.9-18.3 4.7-28 1.1-26.4 0-52.6-2-79-3-37-7.4-74.3-14.8-110.8a531 531 0 0 1-8-37.7c-1.2-8-1-15.4.3-23.4 3.7-20 12-39 21-57.2 7-15.1 14.6-29.9 22-44.8 10.1-19 19.8-37 33.5-53.6A65.8 65.8 0 0 1 365 264c6-3.2 12.3-4.4 19-5.9 16-3.4 32-8.2 47.8-12.4 9.2-2.4 18.5-4.5 27.7-6.8 4.5-8.8 10-18.3 17.5-24.9 5-4.2 12.2-6.7 18.3-3.5Z" fill="#000"/><g fill="#b9a05f"><path d="M489 214.9c3.5-.3 6.4 2 8.3 4.7 5.3 7.5 7.2 15.7 10.2 23.9 1.1 2.5 3 1.3 5 .9-.4-4.4-1.8-8.5-3.3-12.6 18-3.1 36.5-5.2 54.8-5 14-.3 28.4.7 41.8 4.6 9.7 2.6 18.8 6.6 27.6 11.2 12 6 23.7 12.4 35.7 18.4 13.9 7.3 28.5 14.5 41.2 23.7 10.3 7.9 21 17 28 27.9a441 441 0 0 1 44.6 82.6c18 44.1 30.3 92 32.5 139.8 1 14.1.2 28-1 42a184 184 0 0 1-15.6 59.8 92.6 92.6 0 0 1-34.7 40.4c7.1-15 11.3-30.9 14.3-47.2 2.3-13 2-26 .4-39-.6-3.8.6-7-2.8-9.7-1 .9-2.4 1.6-2.9 2.8-1.4 4-2.2 8.2-4 12-3.8 9.2-8.6 17.9-13.6 26.4a252.7 252.7 0 0 1-56.8 64.2 269.6 269.6 0 0 1-44.5 30.6 88.2 88.2 0 0 0 19.5-51.3c.6-18-5-36.2-13.7-51.9a180.5 180.5 0 0 0-28.4-37.7c-1.2-1.1-2.3-2.4-3.7-3.3-2.3-.2-3.4.6-3.8 2.9a114 114 0 0 0 0 19.5c1 10.6 1.8 20.5 5.3 30.6a129 129 0 0 1-22.9-2c-19.2-4-38-13.6-54.2-24.3a250.4 250.4 0 0 1-50.7-43.4 229.6 229.6 0 0 1-31.2-46.8 301.6 301.6 0 0 1-29.2-94.6c-2-12.6-3-25.3-3.5-38-.8-12 0-24 .6-36a275 275 0 0 1 25-96.5c4-8 8.5-16.2 14.4-22.8 3-3.4 6.6-6.4 11.3-6.8Z"/><path d="M456.6 245.2c-8.6 19-15 39-19 59.5a308 308 0 0 0-49.4 34.5c-23.4 19.9-45 42-63.9 66.1a246.4 246.4 0 0 0-31.5 50.5c-2 4.9-4.2 10-5 15.2.4 2.8 4.1 3.4 5.2 1 1.2-2.6 1.8-5.5 2.8-8.2 2.7-7.3 6.2-14.3 10-21a223 223 0 0 0 118.8 225.7 127.7 127.7 0 0 0-18 41.3c-16.6-6-34.6-13.5-47.6-25.8-4.7-4.5-9.2-9-12.5-14.6-1.3-2-4-2.5-5.6-.4a291.1 291.1 0 0 1-43.5 42c2-9.9 2.8-20 2.9-30 .6-10.7.6-21.3 0-32a899.8 899.8 0 0 0-18.5-160c-2.1-7.8-3.5-15.6-5.1-23.5-1.6-8.2-3-16.1-1.6-24.5 3.8-26.3 16.1-49 27.2-72.5l17.5-34.8c9.7-17.9 19-35 32.2-50.7a58 58 0 0 1 16.1-14c5.2-2.6 10.5-3.6 16-4.9 16.6-3.5 32.9-8.3 49-12.8 7.8-2.1 15.6-4 23.5-6Z"/></g></g><g transform="translate(-161 -83)"></g></g></svg>